<svg width="8" height="14" viewBox="0 0 8 14" fill="none" xmlns="http://www.w3.org/2000/svg">
<path d="M0.515755 12.5422C0.45561 12.6058 0.40859 12.6807 0.377379 12.7625C0.346169 12.8443 0.331379 12.9315 0.333856 13.019C0.336332 13.1065 0.356025 13.1927 0.391811 13.2727C0.427597 13.3526 0.478775 13.4247 0.542422 13.4848C0.606069 13.545 0.68094 13.592 0.762759 13.6232C0.844579 13.6544 0.931744 13.6692 1.01928 13.6667C1.10681 13.6642 1.193 13.6446 1.27293 13.6088C1.35285 13.573 1.42494 13.5218 1.48509 13.4582L7.15176 7.45816C7.26878 7.33438 7.33398 7.1705 7.33398 7.00016C7.33398 6.82982 7.26878 6.66594 7.15176 6.54216L1.48509 0.54149C1.42534 0.476449 1.35327 0.423929 1.27305 0.386979C1.19283 0.350028 1.10607 0.329387 1.01781 0.326251C0.929543 0.323115 0.841537 0.337549 0.758899 0.368713C0.676261 0.399876 0.600639 0.447149 0.536425 0.507785C0.472211 0.568422 0.420686 0.641213 0.384842 0.721931C0.348997 0.802649 0.329549 0.889684 0.327626 0.977982C0.325703 1.06628 0.341344 1.15408 0.37364 1.23628C0.405936 1.31848 0.454243 1.39345 0.515756 1.45682L5.75042 7.00016L0.515755 12.5422Z" fill="#555555"/>
</svg>
