<svg width="14" height="18" viewBox="0 0 14 18" fill="none" xmlns="http://www.w3.org/2000/svg">
<path fill-rule="evenodd" clip-rule="evenodd" d="M7.206 16.4742C8.16442 15.6046 9.05144 14.6593 9.8585 13.6476C11.5585 11.5117 12.5927 9.40592 12.6627 7.53341C12.6904 6.77241 12.5644 6.01363 12.2923 5.3024C12.0202 4.59117 11.6075 3.94208 11.0789 3.39391C10.5503 2.84573 9.91668 2.40972 9.21581 2.11192C8.51495 1.81411 7.76125 1.66063 6.99975 1.66063C6.23824 1.66063 5.48454 1.81411 4.78368 2.11192C4.08282 2.40972 3.44917 2.84573 2.92058 3.39391C2.392 3.94208 1.97933 4.59117 1.70721 5.3024C1.4351 6.01363 1.30913 6.77241 1.33683 7.53341C1.40766 9.40592 2.44266 11.5117 4.14183 13.6476C4.94888 14.6593 5.8359 15.6046 6.79433 16.4742C6.88655 16.5576 6.95516 16.6181 7.00016 16.6559L7.206 16.4742ZM6.38516 17.4451C6.38516 17.4451 0.333496 12.3484 0.333496 7.33342C0.333496 5.5653 1.03588 3.86961 2.28612 2.61937C3.53636 1.36913 5.23205 0.666748 7.00016 0.666748C8.76827 0.666748 10.464 1.36913 11.7142 2.61937C12.9645 3.86961 13.6668 5.5653 13.6668 7.33342C13.6668 12.3484 7.61516 17.4451 7.61516 17.4451C7.2785 17.7551 6.72433 17.7517 6.38516 17.4451ZM7.00016 9.66675C7.619 9.66675 8.21249 9.42092 8.65008 8.98333C9.08766 8.54575 9.3335 7.95225 9.3335 7.33342C9.3335 6.71458 9.08766 6.12108 8.65008 5.6835C8.21249 5.24591 7.619 5.00008 7.00016 5.00008C6.38132 5.00008 5.78783 5.24591 5.35025 5.6835C4.91266 6.12108 4.66683 6.71458 4.66683 7.33342C4.66683 7.95225 4.91266 8.54575 5.35025 8.98333C5.78783 9.42092 6.38132 9.66675 7.00016 9.66675ZM7.00016 10.6667C6.11611 10.6667 5.26826 10.3156 4.64314 9.69044C4.01802 9.06532 3.66683 8.21747 3.66683 7.33342C3.66683 6.44936 4.01802 5.60151 4.64314 4.97639C5.26826 4.35127 6.11611 4.00008 7.00016 4.00008C7.88422 4.00008 8.73206 4.35127 9.35719 4.97639C9.98231 5.60151 10.3335 6.44936 10.3335 7.33342C10.3335 8.21747 9.98231 9.06532 9.35719 9.69044C8.73206 10.3156 7.88422 10.6667 7.00016 10.6667Z" fill="#131515"/>
</svg>
