<svg width="54" height="54" viewBox="0 0 54 54" fill="none" xmlns="http://www.w3.org/2000/svg">
<rect x="0.5" y="0.5" width="53" height="53" rx="4.5" stroke="#1F8386"/>
<g clip-path="url(#clip0_265_10738)">
<path d="M35.6334 34.0778C34.7779 34 33.9223 34.3111 33.2223 34.9333C32.3668 35.7889 30.9668 35.7889 30.0334 34.9333C29.2557 34.3889 28.4001 34.0778 27.4668 34.0778C26.5334 34 25.6001 34.3111 24.9001 34.9333C24.4334 35.3222 23.889 35.5556 23.2668 35.5556C22.6446 35.5556 22.1001 35.3222 21.6334 34.9333C20.8557 34.3111 19.9223 34 18.989 34C18.0557 34 17.1223 34.3111 16.3446 34.9333C15.8779 35.3222 15.1779 35.5556 14.5557 35.5556V37.1111C15.5668 37.1889 16.5779 36.8778 17.3557 36.1778C17.8223 35.7889 18.5223 35.5556 19.1446 35.5556C19.689 35.5556 20.3112 35.7889 20.7779 36.1778C22.1779 37.4222 24.3557 37.4222 25.8334 36.1778C26.3001 35.7889 26.8446 35.5556 27.4668 35.5556C28.0112 35.5556 28.5557 35.7889 29.0223 36.1778C30.5001 37.4222 32.6001 37.4222 34.0779 36.1778C34.4668 35.7889 35.089 35.5556 35.6334 35.5556C36.1779 35.5556 36.7223 35.7889 37.1112 36.1778C37.8112 36.7222 38.589 37.0333 39.4445 37.1111V35.5556C38.6668 35.5556 38.5112 35.2444 38.1223 34.9333C37.4223 34.3889 36.5668 34.0778 35.6334 34.0778Z" fill="#1F8386"/>
<path d="M17.6663 30.889C17.6663 30.4223 18.0551 30.1112 18.5218 30.1112H37.8885L35.1663 32.5223H35.3218C35.944 32.5223 36.5663 32.6779 37.0329 32.9112L38.9774 31.2001L39.1329 31.0446C39.6774 30.4223 39.5996 29.4112 38.9774 28.8668C38.6663 28.7112 38.3551 28.5557 37.9663 28.5557H18.5218C17.1996 28.5557 16.1885 29.5668 16.1885 30.889V33.3779C16.5774 32.989 17.1218 32.7557 17.6663 32.5223V30.889Z" fill="#1F8386"/>
<path d="M19.9221 27.7782H24.6666V21.7115C24.6666 21.2448 24.4333 20.7782 24.0444 20.467C23.3444 19.9226 22.3333 20.0782 21.8666 20.7782L18.6777 25.367C18.3666 25.8337 18.3666 26.4559 18.5999 27.0004C18.8333 27.467 19.3777 27.7782 19.9221 27.7782ZM23.1888 21.7115L23.111 26.2226H19.9221L23.1888 21.7115Z" fill="#1F8386"/>
<path d="M33.2221 27.0003C33.5332 26.5337 33.5332 25.9115 33.2221 25.4448L28.3221 17.3559C28.011 16.8892 27.5443 16.5781 26.9999 16.5781C26.1443 16.5781 25.4443 17.2781 25.4443 18.1337V27.7781H31.8999C32.4443 27.7781 32.9888 27.467 33.2221 27.0003ZM26.9221 18.1337L31.8999 26.3004H26.9221V18.1337Z" fill="#1F8386"/>
</g>
<defs>
<clipPath id="clip0_265_10738">
<rect width="28" height="28" fill="white" transform="translate(13 13)"/>
</clipPath>
</defs>
</svg>
