<svg width="23" height="7" viewBox="0 0 23 7" fill="none" xmlns="http://www.w3.org/2000/svg">
<path d="M22.2557 2.06438C22.0522 1.48468 21.4998 1.06854 20.8528 1.06854H20.8383C20.4167 1.06854 20.0369 1.24481 19.7661 1.52648C19.4954 1.24481 19.1156 1.06854 18.694 1.06854H18.6812C18.3105 1.06854 17.9707 1.20483 17.7108 1.42835V1.31568C17.7017 1.20119 17.6091 1.11215 17.4928 1.11215H16.4969C16.3752 1.11215 16.277 1.21028 16.277 1.33204V6.7365C16.277 6.85826 16.3752 6.95639 16.4969 6.95639H17.4928C17.6036 6.95639 17.6963 6.87279 17.709 6.76739V2.88759C17.709 2.87305 17.709 2.86215 17.7108 2.84943C17.7272 2.67679 17.8544 2.53323 18.0543 2.51687H18.2378C18.3214 2.52414 18.3923 2.55322 18.4468 2.59865C18.534 2.66771 18.5813 2.7731 18.5813 2.88941L18.5849 6.74922C18.5849 6.87098 18.6831 6.97092 18.8048 6.97092H19.8007C19.9188 6.97092 20.0133 6.87824 20.0187 6.76194V2.88577C20.0187 2.75857 20.0769 2.64226 20.1805 2.57503C20.2313 2.54232 20.2931 2.52051 20.364 2.51324H20.5475C20.7638 2.53141 20.8928 2.69496 20.8928 2.88577L20.8965 6.74195C20.8965 6.86371 20.9946 6.96184 21.1163 6.96184H22.1122C22.2285 6.96184 22.3248 6.87098 22.3321 6.75649V2.52778C22.3266 2.28972 22.2957 2.17887 22.2557 2.06438ZM15.5174 1.12669H14.9486V0.203531C14.9486 0.201713 14.9486 0.201713 14.9486 0.199896C14.9486 0.0908619 14.8596 0 14.7469 0C14.7342 0 14.7215 0.00181724 14.7088 0.00363448C14.0782 0.176272 14.2036 1.05036 13.0514 1.12487H12.9406C12.9242 1.12487 12.9079 1.12669 12.8915 1.13032C12.7952 1.15395 12.7207 1.24117 12.7207 1.34657V2.34242C12.7207 2.46417 12.8188 2.56231 12.9406 2.56231H13.5403L13.5385 6.78193C13.5385 6.90187 13.6366 7 13.7565 7H14.7415C14.8614 7 14.9595 6.90187 14.9595 6.78193V2.56231H15.5174C15.6374 2.56231 15.7373 2.46236 15.7373 2.34242V1.34657C15.7373 1.22482 15.6392 1.12669 15.5174 1.12669Z" fill="#00BAF2"/>
<path d="M11.9374 1.12657H10.9416C10.8217 1.12657 10.7217 1.2247 10.7217 1.34646V3.40539C10.7199 3.53259 10.6163 3.63436 10.4891 3.63436H10.0729C9.94392 3.63436 9.83852 3.53078 9.83852 3.40175L9.83489 1.34646C9.83489 1.2247 9.73676 1.12657 9.615 1.12657H8.61916C8.4974 1.12657 8.39927 1.2247 8.39927 1.34646V3.60165C8.39927 4.45757 9.00986 5.06998 9.8676 5.06998C9.8676 5.06998 10.5109 5.06998 10.5309 5.07361C10.6472 5.08633 10.7362 5.18446 10.7362 5.3044C10.7362 5.42252 10.649 5.52065 10.5327 5.53519C10.5273 5.53519 10.5218 5.53701 10.5164 5.53882L9.06075 5.54428C8.93899 5.54428 8.84086 5.64241 8.84086 5.76416V6.75819C8.84086 6.87995 8.93899 6.97808 9.06075 6.97808H10.6872C11.5449 6.97808 12.1555 6.36749 12.1555 5.51157V1.34646C12.1573 1.2247 12.0592 1.12657 11.9374 1.12657ZM6.27492 1.13202H4.89382C4.77207 1.13202 4.67212 1.2247 4.67212 1.33737V1.72444C4.67212 1.72626 4.67212 1.7299 4.67212 1.73171C4.67212 1.73535 4.67212 1.73716 4.67212 1.7408V2.27143C4.67212 2.39137 4.77752 2.49132 4.90654 2.49132H6.22222C6.3258 2.50767 6.40758 2.584 6.4203 2.70212V2.83114C6.4094 2.94381 6.32762 3.02559 6.22767 3.03467H5.5771C4.71028 3.03467 4.09424 3.61074 4.09424 4.41759V5.57517C4.09424 6.37839 4.62487 6.949 5.48442 6.949H7.28894C7.61241 6.949 7.87591 6.70367 7.87591 6.40201V2.62579C7.87591 1.70991 7.40343 1.13202 6.27492 1.13202ZM6.43302 5.28623V5.44251C6.43302 5.45523 6.4312 5.46795 6.42939 5.47886C6.42757 5.48976 6.42394 5.50066 6.4203 5.51157C6.38941 5.59879 6.30218 5.6624 6.1986 5.6624H5.78427C5.65524 5.6624 5.54984 5.56427 5.54984 5.44251V5.25534C5.54984 5.25352 5.54984 5.24988 5.54984 5.24807V4.74833V4.59204V4.59023C5.54984 4.47029 5.65524 4.37216 5.78427 4.37216H6.1986C6.32762 4.37216 6.43302 4.47029 6.43302 4.59204V5.28623ZM2.39148 1.12476H0.216251C0.0963136 1.12476 0 1.22289 0 1.34101V2.31686C0 2.31868 0 2.3205 0 2.32232C0 2.32777 0 2.3314 0 2.33504V6.7491C0 6.86904 0.0890447 6.96717 0.201713 6.96899H1.21573C1.33749 6.96899 1.43562 6.87086 1.43562 6.7491L1.43925 5.23716H2.39148C3.18743 5.23716 3.74351 4.68472 3.74351 3.88332V2.48041C3.74351 1.68083 3.18743 1.12476 2.39148 1.12476ZM2.30426 2.94926V3.56349C2.30426 3.69251 2.20067 3.79791 2.07165 3.79791H1.44107V2.56764H2.07165C2.20067 2.56764 2.30426 2.67122 2.30426 2.80025V2.94926Z" fill="#20336B"/>
</svg>
