<svg width="28" height="28" viewBox="0 0 28 28" fill="none" xmlns="http://www.w3.org/2000/svg">
<g clip-path="url(#clip0_265_10740)">
<path d="M22.6334 21.0778C21.7779 21 20.9223 21.3111 20.2223 21.9333C19.3668 22.7889 17.9668 22.7889 17.0334 21.9333C16.2557 21.3889 15.4001 21.0778 14.4668 21.0778C13.5334 21 12.6001 21.3111 11.9001 21.9333C11.4334 22.3222 10.889 22.5556 10.2668 22.5556C9.64455 22.5556 9.10011 22.3222 8.63344 21.9333C7.85566 21.3111 6.92233 21 5.989 21C5.05566 21 4.12233 21.3111 3.34455 21.9333C2.87789 22.3222 2.17789 22.5556 1.55566 22.5556V24.1111C2.56677 24.1889 3.57789 23.8778 4.35566 23.1778C4.82233 22.7889 5.52233 22.5556 6.14455 22.5556C6.689 22.5556 7.31122 22.7889 7.77789 23.1778C9.17789 24.4222 11.3557 24.4222 12.8334 23.1778C13.3001 22.7889 13.8446 22.5556 14.4668 22.5556C15.0112 22.5556 15.5557 22.7889 16.0223 23.1778C17.5001 24.4222 19.6001 24.4222 21.0779 23.1778C21.4668 22.7889 22.089 22.5556 22.6334 22.5556C23.1779 22.5556 23.7223 22.7889 24.1112 23.1778C24.8112 23.7222 25.589 24.0333 26.4445 24.1111V22.5556C25.6668 22.5556 25.5112 22.2444 25.1223 21.9333C24.4223 21.3889 23.5668 21.0778 22.6334 21.0778Z" fill="#1F8386"/>
<path d="M4.66625 17.889C4.66625 17.4223 5.05514 17.1112 5.52181 17.1112H24.8885L22.1663 19.5223H22.3218C22.944 19.5223 23.5663 19.6779 24.0329 19.9112L25.9774 18.2001L26.1329 18.0446C26.6774 17.4223 26.5996 16.4112 25.9774 15.8668C25.6663 15.7112 25.3551 15.5557 24.9663 15.5557H5.52181C4.19959 15.5557 3.18848 16.5668 3.18848 17.889V20.3779C3.57737 19.989 4.12181 19.7557 4.66625 19.5223V17.889Z" fill="#1F8386"/>
<path d="M6.92214 14.7782H11.6666V8.71148C11.6666 8.24482 11.4333 7.77815 11.0444 7.46704C10.3444 6.9226 9.33325 7.07815 8.86658 7.77815L5.67769 12.367C5.36658 12.8337 5.36658 13.4559 5.59992 14.0004C5.83325 14.467 6.37769 14.7782 6.92214 14.7782ZM10.1888 8.71148L10.111 13.2226H6.92214L10.1888 8.71148Z" fill="#1F8386"/>
<path d="M20.2221 14.0003C20.5332 13.5337 20.5332 12.9115 20.2221 12.4448L15.3221 4.3559C15.011 3.88924 14.5443 3.57812 13.9999 3.57812C13.1443 3.57812 12.4443 4.27813 12.4443 5.13368V14.7781H18.8999C19.4443 14.7781 19.9888 14.467 20.2221 14.0003ZM13.9221 5.13368L18.8999 13.3004H13.9221V5.13368Z" fill="#1F8386"/>
</g>
<defs>
<clipPath id="clip0_265_10740">
<rect width="28" height="28" fill="white"/>
</clipPath>
</defs>
</svg>
