<svg width="14" height="18" viewBox="0 0 14 18" fill="none" xmlns="http://www.w3.org/2000/svg">
<path fill-rule="evenodd" clip-rule="evenodd" d="M7.20551 16.474C8.16394 15.6043 9.05095 14.6591 9.85801 13.6473C11.558 11.5115 12.5922 9.40567 12.6622 7.53317C12.6899 6.77217 12.5639 6.01339 12.2918 5.30215C12.0197 4.59092 11.607 3.94183 11.0784 3.39366C10.5498 2.84549 9.91619 2.40948 9.21533 2.11167C8.51446 1.81387 7.76077 1.66038 6.99926 1.66038C6.23775 1.66038 5.48405 1.81387 4.78319 2.11167C4.08233 2.40948 3.44868 2.84549 2.9201 3.39366C2.39151 3.94183 1.97884 4.59092 1.70672 5.30215C1.43461 6.01339 1.30864 6.77217 1.33634 7.53317C1.40717 9.40567 2.44217 11.5115 4.14134 13.6473C4.94839 14.6591 5.83541 15.6043 6.79384 16.474C6.88606 16.5573 6.95467 16.6179 6.99967 16.6557L7.20551 16.474ZM6.38467 17.4448C6.38467 17.4448 0.333008 12.3482 0.333008 7.33317C0.333008 5.56506 1.03539 3.86937 2.28563 2.61913C3.53587 1.36888 5.23156 0.666504 6.99967 0.666504C8.76778 0.666504 10.4635 1.36888 11.7137 2.61913C12.964 3.86937 13.6663 5.56506 13.6663 7.33317C13.6663 12.3482 7.61467 17.4448 7.61467 17.4448C7.27801 17.7548 6.72384 17.7515 6.38467 17.4448ZM6.99967 9.6665C7.61851 9.6665 8.21201 9.42067 8.64959 8.98309C9.08718 8.5455 9.33301 7.95201 9.33301 7.33317C9.33301 6.71433 9.08718 6.12084 8.64959 5.68325C8.21201 5.24567 7.61851 4.99984 6.99967 4.99984C6.38084 4.99984 5.78734 5.24567 5.34976 5.68325C4.91217 6.12084 4.66634 6.71433 4.66634 7.33317C4.66634 7.95201 4.91217 8.5455 5.34976 8.98309C5.78734 9.42067 6.38084 9.6665 6.99967 9.6665ZM6.99967 10.6665C6.11562 10.6665 5.26777 10.3153 4.64265 9.69019C4.01753 9.06507 3.66634 8.21723 3.66634 7.33317C3.66634 6.44912 4.01753 5.60127 4.64265 4.97615C5.26777 4.35103 6.11562 3.99984 6.99967 3.99984C7.88373 3.99984 8.73158 4.35103 9.3567 4.97615C9.98182 5.60127 10.333 6.44912 10.333 7.33317C10.333 8.21723 9.98182 9.06507 9.3567 9.69019C8.73158 10.3153 7.88373 10.6665 6.99967 10.6665Z" fill="#131515"/>
</svg>
