<svg width="173" height="172" viewBox="0 0 173 172" fill="none" xmlns="http://www.w3.org/2000/svg">
<path d="M0.5 86C0.5 38.5035 39.0035 0 86.5 0C133.997 0 172.5 38.5035 172.5 86" fill="#C7F7F9"/>
<path d="M172.5 86.0002C172.5 96.7367 170.531 107.016 166.937 116.493H6.06312C2.46859 107.016 0.5 96.7367 0.5 86.0002C0.5 73.8392 3.02289 62.2695 7.5782 51.7849C9.87266 50.7502 12.4191 50.1758 15.0998 50.1758C23.29 50.1758 30.2237 55.5373 32.5921 62.9414C34.9571 55.5373 41.8942 50.1758 50.081 50.1758C58.2712 50.1758 65.2049 55.5373 67.5733 62.9414C69.9416 55.5373 76.8754 50.1758 85.0655 50.1758C93.2557 50.1758 100.189 55.5373 102.558 62.9414C104.923 55.5373 111.86 50.1758 120.047 50.1758C128.237 50.1758 135.171 55.5373 137.539 62.9414C139.907 55.5373 146.841 50.1758 155.031 50.1758C159.325 50.1758 163.272 51.6505 166.396 54.1197C170.333 63.9795 172.5 74.7362 172.5 86.0002Z" fill="#66D4CE"/>
<path d="M172.5 86.0002C172.5 96.7368 170.531 107.016 166.937 116.493C165.049 121.472 162.711 126.229 159.973 130.717H13.0271C10.2892 126.229 7.95109 121.472 6.06312 116.493C2.46859 107.016 0.5 96.7368 0.5 86.0002C0.5 78.8313 1.3768 71.8673 3.02961 65.2124C8.75063 66.9794 13.2757 71.4675 15.0998 77.165C17.4682 69.761 24.402 64.3994 32.5921 64.3994C40.7789 64.3994 47.716 69.761 50.081 77.165C52.4494 69.761 59.3831 64.3994 67.5733 64.3994C75.7634 64.3994 82.6972 69.761 85.0655 77.165C87.4339 69.761 94.3677 64.3994 102.558 64.3994C110.745 64.3994 117.682 69.761 120.047 77.165C122.415 69.761 129.349 64.3994 137.539 64.3994C145.729 64.3994 152.663 69.761 155.031 77.165C157.134 70.5941 162.832 65.6289 169.816 64.5976C171.566 71.4407 172.5 78.6096 172.5 86.0002Z" fill="#ADE4DF"/>
<path d="M172.255 92.5139C171.63 100.899 169.799 108.951 166.937 116.493C165.049 121.472 162.711 126.229 159.973 130.717C156.392 136.592 152.126 142.001 147.285 146.832H25.7158C20.875 142.001 16.6086 136.592 13.0275 130.717C10.2896 126.229 7.95145 121.472 6.06348 116.493C2.66043 107.524 0.715352 97.8351 0.520508 87.7234C3.8698 83.3394 9.1541 80.5142 15.1002 80.5142C23.2903 80.5142 30.2241 85.8757 32.5925 93.2798C34.9575 85.8757 41.8946 80.5142 50.0814 80.5142C58.2715 80.5142 65.2053 85.8757 67.5736 93.2798C69.942 85.8757 76.8757 80.5142 85.0659 80.5142C93.2561 80.5142 100.19 85.8757 102.558 93.2798C104.923 85.8757 111.86 80.5142 120.047 80.5142C128.237 80.5142 135.171 85.8757 137.539 93.2798C139.908 85.8757 146.841 80.5142 155.032 80.5142C162.936 80.5142 169.668 85.5062 172.255 92.5139Z" fill="#66D4CE"/>
<path d="M124.319 63.3442H100.637V55.5219H124.319V63.3442Z" fill="#FE9738"/>
<path d="M120.414 20.4907H128.225V76.2768H120.414V20.4907Z" fill="#FEA95C"/>
<path d="M115.949 76.2773H111.072V57.8273H115.949V76.2773Z" fill="#FE9738"/>
<path d="M128.225 31.6182H120.414V20.4909H128.225V31.6182Z" fill="#FE9738"/>
<path d="M120.414 20.4907H124.32V76.2768H120.414V20.4907Z" fill="#FE9738"/>
<path d="M105.82 76.2773H22.2505V20.4912H105.82V76.2773Z" fill="#FEA95C"/>
<path d="M28.5381 76.2773H22.2503V20.4912H28.5381V76.2773Z" fill="#FE9738"/>
<path d="M105.82 32.3716H22.2505V20.4912H105.82V32.3716Z" fill="#FE9738"/>
<path d="M145.341 61.4614L163.534 53.2437L163.536 76.849C163.536 101.174 143.815 120.894 119.487 120.894H38.9017C22.6437 120.894 9.46387 107.715 9.46387 91.4565V73.3683H92.8389C107.605 73.3683 122.358 72.5117 137.025 70.8031C141.766 70.2501 145.341 66.2344 145.341 61.4614Z" fill="#6C6970"/>
<path d="M163.535 59.0107V76.849C163.535 101.174 143.815 120.894 119.487 120.894H38.9021C22.6427 120.894 9.46387 107.715 9.46387 91.4556V73.6173C9.46387 89.8733 22.6427 103.056 38.9021 103.056H119.487C143.815 103.056 163.535 83.336 163.535 59.0107Z" fill="#554E56"/>
<path d="M68.5485 120.894H38.9021C22.6461 120.894 9.46387 107.715 9.46387 91.456V73.3691H39.1104V91.456C39.1104 107.715 52.2892 120.894 68.5485 120.894Z" fill="#554E56"/>
<path d="M163.535 69.2638C161.679 69.2638 160.175 67.7598 160.175 65.9044V58.4472L146.725 64.523C145.034 65.2866 143.044 64.5354 142.28 62.8443C141.516 61.1536 142.268 59.1635 143.959 58.3999L162.152 50.1822C163.192 49.7125 164.398 49.8026 165.357 50.4214C166.315 51.0402 166.894 52.1027 166.894 53.2436V65.9044C166.894 67.7598 165.39 69.2638 163.535 69.2638Z" fill="#BC7C63"/>
<path d="M22.9018 4.43164H126.977C129.532 4.43164 131.795 6.08378 132.573 8.51798L136.107 19.5791C137.318 23.3691 134.49 27.2418 130.512 27.2418H19.3671C15.3882 27.2418 12.56 23.3691 13.7713 19.5791L17.3061 8.51798C18.0841 6.08345 20.3463 4.43164 22.9018 4.43164Z" fill="#BC7C63"/>
<path d="M41.0289 27.2413H19.3643C15.3868 27.2413 12.5582 23.3679 13.7709 19.5786L17.305 8.51951C18.081 6.08397 20.3452 4.43115 22.9017 4.43115H44.5629C42.0064 4.43115 39.7456 6.08397 38.9662 8.51951L35.4321 19.5786C34.2228 23.3679 37.0514 27.2413 41.0289 27.2413Z" fill="#82635E"/>
<path d="M47.1519 35.9053C40.5386 35.9053 35.1777 41.2665 35.1777 47.8794V66.8777H59.1264V47.8794C59.1264 41.2662 53.7652 35.9053 47.1519 35.9053Z" fill="#554E56"/>
<path d="M82.2769 35.9053C75.6636 35.9053 70.3027 41.2665 70.3027 47.8794V66.8777H94.2514V47.8794C94.2514 41.2662 88.8902 35.9053 82.2769 35.9053Z" fill="#554E56"/>
<path d="M59.1264 50.7198H49.5038V35.9053C49.5038 34.6065 48.451 33.5537 47.1522 33.5537C45.8535 33.5537 44.8007 34.6065 44.8007 35.9053V50.7198H35.1777C33.879 50.7198 32.8262 51.7726 32.8262 53.0713C32.8262 54.3701 33.879 55.4229 35.1777 55.4229H44.8007V66.878C44.8007 68.1768 45.8535 69.2296 47.1522 69.2296C48.451 69.2296 49.5038 68.1768 49.5038 66.878V55.4229H59.1264C60.4251 55.4229 61.4779 54.3701 61.4779 53.0713C61.4779 51.7726 60.4251 50.7198 59.1264 50.7198Z" fill="#82635E"/>
<path d="M59.1264 69.2296H35.1777C33.879 69.2296 32.8262 68.1768 32.8262 66.878V47.8798C32.8262 39.9805 39.2527 33.5537 47.1522 33.5537C55.0518 33.5537 61.4779 39.9802 61.4779 47.8798V66.878C61.4779 68.1768 60.4251 69.2296 59.1264 69.2296ZM37.5293 64.5265H56.7748V47.8798C56.7748 42.574 52.458 38.2568 47.1522 38.2568C41.8464 38.2568 37.5293 42.5736 37.5293 47.8798V64.5265Z" fill="#BC7C63"/>
<path d="M94.2514 50.7198H84.6288V35.9053C84.6288 34.6065 83.576 33.5537 82.2772 33.5537C80.9785 33.5537 79.9257 34.6065 79.9257 35.9053V50.7198H70.3027C69.004 50.7198 67.9512 51.7726 67.9512 53.0713C67.9512 54.3701 69.004 55.4229 70.3027 55.4229H79.9257V66.878C79.9257 68.1768 80.9785 69.2296 82.2772 69.2296C83.576 69.2296 84.6288 68.1768 84.6288 66.878V55.4229H94.2514C95.5501 55.4229 96.6029 54.3701 96.6029 53.0713C96.6029 51.7726 95.5501 50.7198 94.2514 50.7198Z" fill="#82635E"/>
<path d="M94.2514 69.2296H70.3027C69.004 69.2296 67.9512 68.1768 67.9512 66.878V47.8798C67.9512 39.9805 74.3777 33.5537 82.2772 33.5537C90.1768 33.5537 96.6029 39.9802 96.6029 47.8798V66.878C96.6029 68.1768 95.5501 69.2296 94.2514 69.2296ZM72.6543 64.5265H91.8998V47.8798C91.8998 42.574 87.583 38.2568 82.2772 38.2568C76.9714 38.2568 72.6543 42.5736 72.6543 47.8798V64.5265Z" fill="#BC7C63"/>
<path d="M115.948 108.267C123.649 108.267 129.892 102.024 129.892 94.3233C129.892 86.6226 123.649 80.3799 115.948 80.3799C108.248 80.3799 102.005 86.6226 102.005 94.3233C102.005 102.024 108.248 108.267 115.948 108.267Z" fill="#554E56"/>
<path d="M118.845 107.962C117.912 108.16 116.944 108.265 115.95 108.265C108.25 108.265 102.005 102.023 102.005 94.3232C102.005 86.6201 108.25 80.3784 115.95 80.3784C116.944 80.3784 117.912 80.4826 118.845 80.6808C112.533 82.0111 107.796 87.6112 107.796 94.3232C107.796 101.032 112.533 106.632 118.845 107.962Z" fill="#433F43"/>
<path d="M115.948 100.299C119.249 100.299 121.924 97.6236 121.924 94.3233C121.924 91.023 119.249 88.3477 115.948 88.3477C112.648 88.3477 109.973 91.023 109.973 94.3233C109.973 97.6236 112.648 100.299 115.948 100.299Z" fill="#433F43"/>
<path d="M115.949 70.5151C114.602 70.5151 113.51 71.6069 113.51 72.954V80.8959C113.51 82.2427 114.602 83.3348 115.948 83.3348C117.295 83.3348 118.387 82.2431 118.387 80.8959V72.954C118.387 71.6069 117.295 70.5151 115.949 70.5151Z" fill="#F9F7F8"/>
<path d="M82.5342 108.267C90.235 108.267 96.4777 102.024 96.4777 94.3233C96.4777 86.6226 90.235 80.3799 82.5342 80.3799C74.8335 80.3799 68.5908 86.6226 68.5908 94.3233C68.5908 102.024 74.8335 108.267 82.5342 108.267Z" fill="#554E56"/>
<path d="M85.4314 107.962C84.4975 108.16 83.53 108.265 82.5356 108.265C74.8359 108.265 68.5908 102.023 68.5908 94.3232C68.5908 86.6201 74.8359 80.3784 82.5356 80.3784C83.53 80.3784 84.4975 80.4826 85.4314 80.6808C79.1191 82.0111 74.3824 87.6112 74.3824 94.3232C74.3824 101.032 79.1191 106.632 85.4314 107.962Z" fill="#433F43"/>
<path d="M82.5343 100.299C85.8345 100.299 88.5099 97.6236 88.5099 94.3233C88.5099 91.023 85.8345 88.3477 82.5343 88.3477C79.234 88.3477 76.5586 91.023 76.5586 94.3233C76.5586 97.6236 79.234 100.299 82.5343 100.299Z" fill="#433F43"/>
<path d="M82.5346 70.5151C81.1878 70.5151 80.0957 71.6069 80.0957 72.954V80.8959C80.0957 82.2427 81.1875 83.3348 82.5343 83.3348C83.881 83.3348 84.9732 82.2431 84.9732 80.8959V72.954C84.9735 71.6069 83.8817 70.5151 82.5346 70.5151Z" fill="#F9F7F8"/>
<path d="M49.1212 108.267C56.8219 108.267 63.0646 102.024 63.0646 94.3233C63.0646 86.6226 56.8219 80.3799 49.1212 80.3799C41.4204 80.3799 35.1777 86.6226 35.1777 94.3233C35.1777 102.024 41.4204 108.267 49.1212 108.267Z" fill="#554E56"/>
<path d="M52.0183 107.962C51.0844 108.16 50.1169 108.265 49.1225 108.265C41.4228 108.265 35.1777 102.023 35.1777 94.3232C35.1777 86.6201 41.4228 80.3784 49.1225 80.3784C50.1169 80.3784 51.0844 80.4826 52.0183 80.6808C45.706 82.0111 40.9693 87.6112 40.9693 94.3232C40.9693 101.032 45.706 106.632 52.0183 107.962Z" fill="#433F43"/>
<path d="M49.1212 100.299C52.4214 100.299 55.0968 97.6236 55.0968 94.3233C55.0968 91.023 52.4214 88.3477 49.1212 88.3477C45.8209 88.3477 43.1455 91.023 43.1455 94.3233C43.1455 97.6236 45.8209 100.299 49.1212 100.299Z" fill="#433F43"/>
<path d="M49.1212 101.979C44.9001 101.979 41.4658 98.5444 41.4658 94.3233C41.4658 90.1023 44.9001 86.668 49.1212 86.668C53.3422 86.668 56.7765 90.1023 56.7765 94.3233C56.7765 98.5444 53.3422 101.979 49.1212 101.979ZM49.1212 90.0273C46.7525 90.0273 44.8252 91.9546 44.8252 94.3233C44.8252 96.692 46.7525 98.6193 49.1212 98.6193C51.4899 98.6193 53.4171 96.692 53.4171 94.3233C53.4171 91.9546 51.4899 90.0273 49.1212 90.0273Z" fill="#DEDBEE"/>
<path d="M49.1215 70.5151C47.7747 70.5151 46.6826 71.6069 46.6826 72.954V80.8959C46.6826 82.2427 47.7744 83.3348 49.1215 83.3348C50.4683 83.3348 51.5604 82.2431 51.5604 80.8959V72.954C51.5601 71.6069 50.4683 70.5151 49.1215 70.5151Z" fill="#F9F7F8"/>
<path d="M82.5343 101.978C78.3132 101.978 74.8789 98.5434 74.8789 94.3223C74.8789 90.1013 78.3132 86.667 82.5343 86.667C86.7553 86.667 90.1896 90.1013 90.1896 94.3223C90.1896 98.5434 86.7556 101.978 82.5343 101.978ZM82.5343 90.0264C80.1656 90.0264 78.2383 91.9536 78.2383 94.3223C78.2383 96.691 80.1656 98.6183 82.5343 98.6183C84.9029 98.6183 86.8302 96.691 86.8302 94.3223C86.8302 91.9536 84.9029 90.0264 82.5343 90.0264Z" fill="#DEDBEE"/>
<path d="M115.948 101.978C111.727 101.978 108.293 98.5434 108.293 94.3223C108.293 90.1013 111.727 86.667 115.948 86.667C120.169 86.667 123.604 90.1013 123.604 94.3223C123.604 98.5434 120.169 101.978 115.948 101.978ZM115.948 90.0264C113.58 90.0264 111.652 91.9536 111.652 94.3223C111.652 96.691 113.58 98.6183 115.948 98.6183C118.317 98.6183 120.244 96.691 120.244 94.3223C120.244 91.9536 118.317 90.0264 115.948 90.0264Z" fill="#DEDBEE"/>
<path d="M170.73 103.435C169.809 107.926 168.533 112.287 166.937 116.493C165.049 121.471 162.711 126.228 159.973 130.716C156.392 136.592 152.126 142.001 147.285 146.831C136.239 157.874 122.2 165.923 106.495 169.662H66.5052C50.8001 165.923 36.7613 157.874 25.7156 146.831C20.8748 142.001 16.6084 136.592 13.0273 130.716C10.2894 126.228 7.95125 121.471 6.06328 116.493C4.53477 112.458 3.29852 108.279 2.38477 103.976C8.41149 105.595 13.2087 110.204 15.1 116.113C17.4684 108.709 24.4021 103.348 32.5923 103.348C40.7791 103.348 47.7162 108.709 50.0812 116.113C52.4495 108.709 59.3833 103.348 67.5734 103.348C75.7636 103.348 82.6973 108.709 85.0657 116.113C87.4341 108.709 94.3678 103.348 102.558 103.348C110.745 103.348 117.682 108.709 120.047 116.113C122.415 108.709 129.349 103.348 137.539 103.348C145.729 103.348 152.663 108.709 155.031 116.113C157.225 109.257 163.332 104.151 170.73 103.435Z" fill="#ADE4DF"/>
<path d="M157.961 133.861C154.83 138.531 151.249 142.874 147.285 146.832C136.239 157.874 122.201 165.923 106.495 169.662C100.079 171.191 93.3838 172 86.5005 172C79.6171 172 72.9219 171.191 66.5055 169.662C50.8004 165.923 36.7616 157.874 25.7159 146.832C21.688 142.811 18.0566 138.39 14.8887 133.633C14.9592 133.629 15.0298 133.629 15.1003 133.629C23.2905 133.629 30.2242 138.994 32.5926 146.398C34.9576 138.994 41.8947 133.629 50.0815 133.629C58.2716 133.629 65.2054 138.994 67.5737 146.398C69.9421 138.994 76.8759 133.629 85.066 133.629C93.2562 133.629 100.19 138.994 102.558 146.398C104.923 138.994 111.86 133.629 120.047 133.629C128.237 133.629 135.171 138.994 137.539 146.398C139.908 138.994 146.842 133.629 155.032 133.629C156.029 133.629 157.007 133.71 157.961 133.861Z" fill="#66D4CE"/>
</svg>
